# xmcd
#
# Track frame offsets:
#	150
#	13384
#	27217
#	41052
#	53849
#	66299
#	81288
#	94559
#	109468
#	123683
#	136750
#	149521
#	163431
#	163483
#	163506
#	178000
#	191788
#	203531
#	217793
#	233488
#	244710
#	258896
#	271203
#	285755
#	298562
#	314658
#
# Disc length: 4371 seconds
#
# Revision: 0
# Processed by: cddbd v1.5.2PL0 Copyright (c) Steve Scherf et al.
# Submitted via: EasyCDDAExtractor 10.0.2.1
#
DISCID=8311111a
DTITLE=The Carter Family - In The Shadow Of Clinch Mountain - Vol. 04
DYEAR=2001
DGENRE=Bluegrass
TTITLE0=I Never Loved But One
TTITLE1=Tell Me That You Love Me
TTITLE2=Where We'll Never Grow Old
TTITLE3=We Will March Through The Streets Of The City
TTITLE4=Sweet As The Flowers In Maytime
TTITLE5=Will The Roses Bloom In Heaven
TTITLE6=My Little Home In Tennessee
TTITLE7=Sun Of The Soul
TTITLE8=If One Won't Another One Will
TTITLE9=Broken Hearted Lover
TTITLE10=Two Sweethearts
TTITLE11=Winding Stream
TTITLE12=I Wouldn't Mind Dying
TTITLE13=Spirit Of Love Watches Over Me
TTITLE14=Church In The Wildwood
TTITLE15=Give Me Roses While I Live
TTITLE16=I Never Will Marry
TTITLE17=On The Sea Of Galilee
TTITLE18=Home By The Sea
TTITLE19=When The Roses Come Again
TTITLE20=I Loved You Better Than You Knew
TTITLE21=This Is Like Heaven To Me
TTITLE22=See That My Grave Is Kept Green
TTITLE23=Over The Garden Wall
TTITLE24=Gold Watch And Chain
TTITLE25=School House On The Hill
EXTD=
EXTT0=
EXTT1=
EXTT2=
EXTT3=
EXTT4=
EXTT5=
EXTT6=
EXTT7=
EXTT8=
EXTT9=
EXTT10=
EXTT11=
EXTT12=
EXTT13=
EXTT14=
EXTT15=
EXTT16=
EXTT17=
EXTT18=
EXTT19=
EXTT20=
EXTT21=
EXTT22=
EXTT23=
EXTT24=
EXTT25=
PLAYORDER=
